# MagicaVoxel @ Ephtracy

# group
g block-treasure

# material
mtllib block-treasure.mtl
usemtl palette

# normals
vn -1 0 0
vn 1 0 0
vn 0 0 1
vn 0 0 -1
vn 0 -1 0
vn 0 1 0

# texcoords
vt 0.00585938 0.5
vt 0.0214844 0.5
vt 0.982422 0.5

# verts
v -5 0 5
v -5 0 -5
v -5 1 1
v -5 1 -4
v -5 5 2
v -5 5 1
v -5 6 5
v -5 6 2
v -5 6 1
v -5 6 -1
v -5 6 -4
v -5 8 1
v -5 8 -1
v -5 10 5
v -5 10 1
v -5 10 -5
v 5 0 5
v 5 0 -1
v 5 0 -5
v 5 1 3
v 5 1 -0
v 5 4 3
v 5 4 -0
v 5 4 -1
v 5 4 -5
v 5 5 2
v 5 5 -2
v 5 9 2
v 5 9 -2
v 5 10 5
v 5 10 -5
v -5 0 5
v -5 6 5
v -5 10 5
v -1 1 5
v -1 5 5
v -1 6 5
v -1 10 5
v 1 5 5
v 1 7 5
v 3 1 5
v 3 4 5
v 3 5 5
v 4 4 5
v 4 7 5
v 5 0 5
v 5 10 5
v -5 0 -5
v -5 10 -5
v -4 2 -5
v -4 5 -5
v -3 3 -5
v -3 5 -5
v -3 8 -5
v -1 2 -5
v -1 3 -5
v 1 0 -5
v 1 3 -5
v 2 4 -5
v 2 8 -5
v 5 0 -5
v 5 4 -5
v 5 10 -5
v -5 0 5
v 5 0 5
v -4 0 4
v 0 0 4
v -4 0 -0
v 0 0 -0
v -2 0 -1
v 1 0 -1
v 5 0 -1
v -2 0 -4
v 1 0 -4
v -5 0 -5
v 1 0 -5
v 5 0 -5
v -5 10 5
v -1 10 5
v 5 10 5
v 1 10 3
v 4 10 3
v -5 10 1
v -1 10 1
v -3 10 -0
v 1 10 -0
v 4 10 -0
v -3 10 -4
v 1 10 -4
v -5 10 -5
v 5 10 -5

# faces
f 3/3/1 2/3/1 1/3/1
f 4/3/1 2/3/1 3/3/1
f 5/3/1 3/3/1 1/3/1
f 6/2/1 4/2/1 3/2/1
f 6/3/1 3/3/1 5/3/1
f 7/3/1 5/3/1 1/3/1
f 8/1/1 6/1/1 5/1/1
f 8/3/1 5/3/1 7/3/1
f 9/2/1 4/2/1 6/2/1
f 9/1/1 6/1/1 8/1/1
f 10/2/1 4/2/1 9/2/1
f 11/3/1 2/3/1 4/3/1
f 11/2/1 4/2/1 10/2/1
f 12/1/1 10/1/1 9/1/1
f 12/2/1 8/2/1 7/2/1
f 12/2/1 9/2/1 8/2/1
f 13/3/1 11/3/1 10/3/1
f 13/1/1 10/1/1 12/1/1
f 14/2/1 12/2/1 7/2/1
f 15/3/1 13/3/1 12/3/1
f 15/2/1 12/2/1 14/2/1
f 16/3/1 2/3/1 11/3/1
f 16/3/1 13/3/1 15/3/1
f 16/3/1 11/3/1 13/3/1
f 17/3/2 18/3/2 20/3/2
f 20/3/2 18/3/2 21/3/2
f 17/3/2 20/3/2 22/3/2
f 20/1/2 21/1/2 22/1/2
f 21/3/2 18/3/2 23/3/2
f 22/1/2 21/1/2 23/1/2
f 18/2/2 19/2/2 24/2/2
f 23/3/2 18/3/2 24/3/2
f 24/2/2 19/2/2 25/2/2
f 22/3/2 23/3/2 26/3/2
f 23/3/2 24/3/2 26/3/2
f 24/3/2 25/3/2 26/3/2
f 26/3/2 25/3/2 27/3/2
f 22/3/2 26/3/2 28/3/2
f 26/2/2 27/2/2 28/2/2
f 27/3/2 25/3/2 29/3/2
f 28/2/2 27/2/2 29/2/2
f 17/3/2 22/3/2 30/3/2
f 22/3/2 28/3/2 30/3/2
f 28/3/2 29/3/2 30/3/2
f 29/3/2 25/3/2 31/3/2
f 30/3/2 29/3/2 31/3/2
f 35/3/3 33/3/3 32/3/3
f 36/3/3 33/3/3 35/3/3
f 37/2/3 34/2/3 33/2/3
f 37/3/3 33/3/3 36/3/3
f 38/2/3 34/2/3 37/2/3
f 39/2/3 36/2/3 35/2/3
f 39/3/3 37/3/3 36/3/3
f 39/3/3 38/3/3 37/3/3
f 40/3/3 38/3/3 39/3/3
f 41/3/3 35/3/3 32/3/3
f 41/2/3 39/2/3 35/2/3
f 42/2/3 39/2/3 41/2/3
f 43/1/3 40/1/3 39/1/3
f 43/2/3 39/2/3 42/2/3
f 44/3/3 42/3/3 41/3/3
f 44/1/3 43/1/3 42/1/3
f 45/3/3 38/3/3 40/3/3
f 45/1/3 43/1/3 44/1/3
f 45/1/3 40/1/3 43/1/3
f 46/3/3 44/3/3 41/3/3
f 46/3/3 41/3/3 32/3/3
f 46/3/3 45/3/3 44/3/3
f 47/3/3 38/3/3 45/3/3
f 47/3/3 45/3/3 46/3/3
f 48/3/4 49/3/4 50/3/4
f 50/3/4 49/3/4 51/3/4
f 50/1/4 51/1/4 52/1/4
f 51/3/4 49/3/4 53/3/4
f 52/1/4 51/1/4 53/1/4
f 53/3/4 49/3/4 54/3/4
f 48/3/4 50/3/4 55/3/4
f 50/1/4 52/1/4 55/1/4
f 53/2/4 54/2/4 56/2/4
f 55/1/4 52/1/4 56/1/4
f 52/2/4 53/2/4 56/2/4
f 48/3/4 55/3/4 57/3/4
f 55/3/4 56/3/4 57/3/4
f 56/2/4 54/2/4 58/2/4
f 57/3/4 56/3/4 58/3/4
f 57/2/4 58/2/4 59/2/4
f 58/2/4 54/2/4 59/2/4
f 54/3/4 49/3/4 60/3/4
f 59/2/4 54/2/4 60/2/4
f 57/2/4 59/2/4 61/2/4
f 59/3/4 60/3/4 62/3/4
f 61/2/4 59/2/4 62/2/4
f 60/3/4 49/3/4 63/3/4
f 62/3/4 60/3/4 63/3/4
f 66/3/5 65/3/5 64/3/5
f 67/3/5 65/3/5 66/3/5
f 68/3/5 66/3/5 64/3/5
f 68/2/5 67/2/5 66/2/5
f 69/3/5 65/3/5 67/3/5
f 69/2/5 67/2/5 68/2/5
f 70/3/5 69/3/5 68/3/5
f 71/3/5 65/3/5 69/3/5
f 71/3/5 69/3/5 70/3/5
f 72/3/5 65/3/5 71/3/5
f 73/3/5 70/3/5 68/3/5
f 73/1/5 71/1/5 70/1/5
f 74/2/5 72/2/5 71/2/5
f 74/1/5 71/1/5 73/1/5
f 75/3/5 68/3/5 64/3/5
f 75/3/5 73/3/5 68/3/5
f 75/3/5 74/3/5 73/3/5
f 76/2/5 72/2/5 74/2/5
f 76/3/5 74/3/5 75/3/5
f 77/2/5 72/2/5 76/2/5
f 79/3/6 80/3/6 81/3/6
f 81/3/6 80/3/6 82/3/6
f 78/2/6 79/2/6 83/2/6
f 79/3/6 81/3/6 84/3/6
f 83/2/6 79/2/6 84/2/6
f 83/3/6 84/3/6 85/3/6
f 81/1/6 82/1/6 86/1/6
f 85/3/6 84/3/6 86/3/6
f 84/3/6 81/3/6 86/3/6
f 82/3/6 80/3/6 87/3/6
f 86/1/6 82/1/6 87/1/6
f 85/2/6 86/2/6 88/2/6
f 83/3/6 85/3/6 88/3/6
f 86/3/6 87/3/6 89/3/6
f 88/2/6 86/2/6 89/2/6
f 83/3/6 88/3/6 90/3/6
f 88/3/6 89/3/6 90/3/6
f 87/3/6 80/3/6 91/3/6
f 90/3/6 89/3/6 91/3/6
f 89/3/6 87/3/6 91/3/6
