# MagicaVoxel @ Ephtracy

# group
g block-arrow

# material
mtllib block-arrow.mtl
usemtl palette

# normals
vn -1 0 0
vn 1 0 0
vn 0 0 1
vn 0 0 -1
vn 0 -1 0
vn 0 1 0

# texcoords
vt 0.912109 0.5
vt 0.919922 0.5
vt 0.955078 0.5

# verts
v -7.5 0 7.5
v -7.5 0 -7.5
v -7.5 14 0.5
v -7.5 14 -0.5
v -7.5 15 7.5
v -7.5 15 0.5
v -7.5 15 -0.5
v -7.5 15 -7.5
v 7.5 0 7.5
v 7.5 0 -7.5
v 7.5 14 0.5
v 7.5 14 -0.5
v 7.5 15 7.5
v 7.5 15 0.5
v 7.5 15 -0.5
v 7.5 15 -7.5
v -7.5 0 7.5
v -7.5 15 7.5
v -0.5 14 7.5
v -0.5 15 7.5
v 0.5 14 7.5
v 0.5 15 7.5
v 7.5 0 7.5
v 7.5 15 7.5
v -7.5 0 -7.5
v -7.5 15 -7.5
v -0.5 14 -7.5
v -0.5 15 -7.5
v 0.5 14 -7.5
v 0.5 15 -7.5
v 7.5 0 -7.5
v 7.5 15 -7.5
v -7.5 0 7.5
v 7.5 0 7.5
v -7.5 0 -7.5
v 7.5 0 -7.5
v -7.5 15 7.5
v -0.5 15 7.5
v 0.5 15 7.5
v 7.5 15 7.5
v -1.5 15 6.5
v -0.5 15 6.5
v 0.5 15 6.5
v 1.5 15 6.5
v -2.5 15 5.5
v -1.5 15 5.5
v 1.5 15 5.5
v 2.5 15 5.5
v -3.5 15 4.5
v -2.5 15 4.5
v -0.5 15 4.5
v 0.5 15 4.5
v 2.5 15 4.5
v 3.5 15 4.5
v -4.5 15 3.5
v -3.5 15 3.5
v -1.5 15 3.5
v 1.5 15 3.5
v 3.5 15 3.5
v 4.5 15 3.5
v -5.5 15 2.5
v -4.5 15 2.5
v 4.5 15 2.5
v 5.5 15 2.5
v -6.5 15 1.5
v -5.5 15 1.5
v -3.5 15 1.5
v -1.5 15 1.5
v 1.5 15 1.5
v 3.5 15 1.5
v 5.5 15 1.5
v 6.5 15 1.5
v -7.5 15 0.5
v -6.5 15 0.5
v -4.5 15 0.5
v -0.5 15 0.5
v 0.5 15 0.5
v 4.5 15 0.5
v 6.5 15 0.5
v 7.5 15 0.5
v -7.5 15 -0.5
v -6.5 15 -0.5
v -4.5 15 -0.5
v -0.5 15 -0.5
v 0.5 15 -0.5
v 4.5 15 -0.5
v 6.5 15 -0.5
v 7.5 15 -0.5
v -6.5 15 -1.5
v -5.5 15 -1.5
v -3.5 15 -1.5
v -1.5 15 -1.5
v 1.5 15 -1.5
v 3.5 15 -1.5
v 5.5 15 -1.5
v 6.5 15 -1.5
v -5.5 15 -2.5
v -4.5 15 -2.5
v 4.5 15 -2.5
v 5.5 15 -2.5
v -4.5 15 -3.5
v -3.5 15 -3.5
v -1.5 15 -3.5
v 1.5 15 -3.5
v 3.5 15 -3.5
v 4.5 15 -3.5
v -3.5 15 -4.5
v -2.5 15 -4.5
v -0.5 15 -4.5
v 0.5 15 -4.5
v 2.5 15 -4.5
v 3.5 15 -4.5
v -2.5 15 -5.5
v -1.5 15 -5.5
v 1.5 15 -5.5
v 2.5 15 -5.5
v -1.5 15 -6.5
v -0.5 15 -6.5
v 0.5 15 -6.5
v 1.5 15 -6.5
v -7.5 15 -7.5
v -0.5 15 -7.5
v 0.5 15 -7.5
v 7.5 15 -7.5

# faces
f 3/3/1 2/3/1 1/3/1
f 4/3/1 2/3/1 3/3/1
f 5/3/1 3/3/1 1/3/1
f 6/1/1 4/1/1 3/1/1
f 6/3/1 3/3/1 5/3/1
f 7/3/1 2/3/1 4/3/1
f 7/1/1 4/1/1 6/1/1
f 8/3/1 2/3/1 7/3/1
f 9/3/2 10/3/2 11/3/2
f 11/3/2 10/3/2 12/3/2
f 9/3/2 11/3/2 13/3/2
f 11/1/2 12/1/2 14/1/2
f 13/3/2 11/3/2 14/3/2
f 12/3/2 10/3/2 15/3/2
f 14/1/2 12/1/2 15/1/2
f 15/3/2 10/3/2 16/3/2
f 19/3/3 18/3/3 17/3/3
f 20/3/3 18/3/3 19/3/3
f 21/3/3 19/3/3 17/3/3
f 21/1/3 20/1/3 19/1/3
f 22/1/3 20/1/3 21/1/3
f 23/3/3 21/3/3 17/3/3
f 23/3/3 22/3/3 21/3/3
f 24/3/3 22/3/3 23/3/3
f 25/3/4 26/3/4 27/3/4
f 27/3/4 26/3/4 28/3/4
f 25/3/4 27/3/4 29/3/4
f 27/1/4 28/1/4 29/1/4
f 29/1/4 28/1/4 30/1/4
f 25/3/4 29/3/4 31/3/4
f 29/3/4 30/3/4 31/3/4
f 31/3/4 30/3/4 32/3/4
f 35/3/5 34/3/5 33/3/5
f 36/3/5 34/3/5 35/3/5
f 37/3/6 38/3/6 41/3/6
f 38/1/6 39/1/6 42/1/6
f 41/3/6 38/3/6 42/3/6
f 39/3/6 40/3/6 43/3/6
f 42/1/6 39/1/6 43/1/6
f 43/3/6 40/3/6 44/3/6
f 37/3/6 41/3/6 45/3/6
f 41/1/6 42/1/6 46/1/6
f 45/3/6 41/3/6 46/3/6
f 42/1/6 43/1/6 46/1/6
f 43/1/6 44/1/6 46/1/6
f 44/3/6 40/3/6 47/3/6
f 46/1/6 44/1/6 47/1/6
f 47/3/6 40/3/6 48/3/6
f 37/3/6 45/3/6 49/3/6
f 45/1/6 46/1/6 50/1/6
f 49/3/6 45/3/6 50/3/6
f 46/1/6 47/1/6 50/1/6
f 47/1/6 48/1/6 50/1/6
f 50/1/6 48/1/6 51/1/6
f 51/1/6 48/1/6 52/1/6
f 48/3/6 40/3/6 53/3/6
f 52/1/6 48/1/6 53/1/6
f 53/3/6 40/3/6 54/3/6
f 37/3/6 49/3/6 55/3/6
f 49/2/6 50/2/6 56/2/6
f 55/3/6 49/3/6 56/3/6
f 50/2/6 51/2/6 56/2/6
f 56/2/6 51/2/6 57/2/6
f 53/2/6 54/2/6 58/2/6
f 52/2/6 53/2/6 58/2/6
f 54/3/6 40/3/6 59/3/6
f 58/2/6 54/2/6 59/2/6
f 59/3/6 40/3/6 60/3/6
f 37/3/6 55/3/6 61/3/6
f 55/2/6 56/2/6 62/2/6
f 61/3/6 55/3/6 62/3/6
f 60/3/6 40/3/6 63/3/6
f 59/2/6 60/2/6 63/2/6
f 63/3/6 40/3/6 64/3/6
f 37/3/6 61/3/6 65/3/6
f 61/1/6 62/1/6 66/1/6
f 65/3/6 61/3/6 66/3/6
f 62/2/6 56/2/6 67/2/6
f 56/3/6 57/3/6 67/3/6
f 57/2/6 51/2/6 68/2/6
f 67/3/6 57/3/6 68/3/6
f 52/2/6 58/2/6 69/2/6
f 58/3/6 59/3/6 69/3/6
f 59/2/6 63/2/6 70/2/6
f 69/3/6 59/3/6 70/3/6
f 64/3/6 40/3/6 71/3/6
f 63/1/6 64/1/6 71/1/6
f 71/3/6 40/3/6 72/3/6
f 37/3/6 65/3/6 73/3/6
f 65/1/6 66/1/6 74/1/6
f 73/3/6 65/3/6 74/3/6
f 66/1/6 62/1/6 75/1/6
f 74/1/6 66/1/6 75/1/6
f 62/2/6 67/2/6 75/2/6
f 67/2/6 68/2/6 75/2/6
f 51/1/6 52/1/6 76/1/6
f 75/2/6 68/2/6 76/2/6
f 68/2/6 51/2/6 76/2/6
f 69/2/6 70/2/6 77/2/6
f 76/1/6 52/1/6 77/1/6
f 52/2/6 69/2/6 77/2/6
f 71/1/6 72/1/6 78/1/6
f 77/2/6 70/2/6 78/2/6
f 70/2/6 63/2/6 78/2/6
f 63/1/6 71/1/6 78/1/6
f 72/3/6 40/3/6 79/3/6
f 78/1/6 72/1/6 79/1/6
f 79/3/6 40/3/6 80/3/6
f 74/1/6 75/1/6 81/1/6
f 75/1/6 76/1/6 81/1/6
f 79/1/6 80/1/6 81/1/6
f 78/1/6 79/1/6 81/1/6
f 77/1/6 78/1/6 81/1/6
f 73/1/6 74/1/6 81/1/6
f 76/1/6 77/1/6 81/1/6
f 81/1/6 80/1/6 82/1/6
f 82/1/6 80/1/6 83/1/6
f 83/1/6 80/1/6 84/1/6
f 84/1/6 80/1/6 85/1/6
f 85/1/6 80/1/6 86/1/6
f 86/1/6 80/1/6 87/1/6
f 87/1/6 80/1/6 88/1/6
f 81/3/6 82/3/6 89/3/6
f 82/1/6 83/1/6 89/1/6
f 89/1/6 83/1/6 90/1/6
f 83/2/6 84/2/6 91/2/6
f 91/2/6 84/2/6 92/2/6
f 85/2/6 86/2/6 93/2/6
f 93/2/6 86/2/6 94/2/6
f 86/1/6 87/1/6 95/1/6
f 87/3/6 88/3/6 96/3/6
f 95/1/6 87/1/6 96/1/6
f 90/1/6 83/1/6 97/1/6
f 89/3/6 90/3/6 97/3/6
f 83/2/6 91/2/6 98/2/6
f 97/1/6 83/1/6 98/1/6
f 86/1/6 95/1/6 99/1/6
f 94/2/6 86/2/6 99/2/6
f 95/3/6 96/3/6 100/3/6
f 99/1/6 95/1/6 100/1/6
f 98/2/6 91/2/6 101/2/6
f 97/3/6 98/3/6 101/3/6
f 91/3/6 92/3/6 102/3/6
f 101/2/6 91/2/6 102/2/6
f 92/2/6 84/2/6 103/2/6
f 102/3/6 92/3/6 103/3/6
f 85/2/6 93/2/6 104/2/6
f 93/3/6 94/3/6 104/3/6
f 94/2/6 99/2/6 105/2/6
f 104/3/6 94/3/6 105/3/6
f 99/3/6 100/3/6 106/3/6
f 105/2/6 99/2/6 106/2/6
f 101/3/6 102/3/6 107/3/6
f 102/2/6 103/2/6 107/2/6
f 107/2/6 103/2/6 108/2/6
f 84/1/6 85/1/6 109/1/6
f 108/2/6 103/2/6 109/2/6
f 103/2/6 84/2/6 109/2/6
f 104/2/6 105/2/6 110/2/6
f 109/1/6 85/1/6 110/1/6
f 85/2/6 104/2/6 110/2/6
f 110/2/6 105/2/6 111/2/6
f 105/3/6 106/3/6 112/3/6
f 111/2/6 105/2/6 112/2/6
f 107/3/6 108/3/6 113/3/6
f 108/1/6 109/1/6 113/1/6
f 110/1/6 111/1/6 113/1/6
f 109/1/6 110/1/6 113/1/6
f 113/1/6 111/1/6 114/1/6
f 114/1/6 111/1/6 115/1/6
f 111/3/6 112/3/6 116/3/6
f 115/1/6 111/1/6 116/1/6
f 114/1/6 115/1/6 117/1/6
f 113/3/6 114/3/6 117/3/6
f 117/1/6 115/1/6 118/1/6
f 118/1/6 115/1/6 119/1/6
f 115/3/6 116/3/6 120/3/6
f 119/1/6 115/1/6 120/1/6
f 81/3/6 89/3/6 121/3/6
f 101/3/6 107/3/6 121/3/6
f 89/3/6 97/3/6 121/3/6
f 117/3/6 118/3/6 121/3/6
f 113/3/6 117/3/6 121/3/6
f 97/3/6 101/3/6 121/3/6
f 107/3/6 113/3/6 121/3/6
f 118/1/6 119/1/6 122/1/6
f 121/3/6 118/3/6 122/3/6
f 119/3/6 120/3/6 123/3/6
f 122/1/6 119/1/6 123/1/6
f 100/3/6 96/3/6 124/3/6
f 123/3/6 120/3/6 124/3/6
f 96/3/6 88/3/6 124/3/6
f 112/3/6 106/3/6 124/3/6
f 106/3/6 100/3/6 124/3/6
f 120/3/6 116/3/6 124/3/6
f 116/3/6 112/3/6 124/3/6
