# MagicaVoxel @ Ephtracy

# group
g block2

# material
mtllib block2.mtl
usemtl palette

# normals
vn -1 0 0
vn 1 0 0
vn 0 0 1
vn 0 0 -1
vn 0 -1 0
vn 0 1 0

# texcoords
vt 0.291016 0.5
vt 0.955078 0.5

# verts
v -5 0 5
v -5 0 2
v -5 0 -5
v -5 3 5
v -5 3 2
v -5 5 -1
v -5 5 -4
v -5 8 -1
v -5 8 -4
v -5 10 5
v -5 10 -5
v 5 0 5
v 5 0 -5
v 5 2 -1
v 5 2 -4
v 5 5 -1
v 5 5 -4
v 5 7 5
v 5 7 2
v 5 10 5
v 5 10 2
v 5 10 -5
v -5 0 5
v -5 3 5
v -5 10 5
v -2 0 5
v -2 3 5
v 2 7 5
v 2 10 5
v 5 0 5
v 5 7 5
v 5 10 5
v -5 0 -5
v -5 10 -5
v -3 5 -5
v -3 8 -5
v 0 2 -5
v 0 5 -5
v 0 8 -5
v 3 2 -5
v 3 5 -5
v 5 0 -5
v 5 10 -5
v -5 0 5
v -2 0 5
v 5 0 5
v -5 0 2
v -2 0 2
v -4 0 -0
v -1 0 -0
v -4 0 -3
v -1 0 -3
v -5 0 -5
v 5 0 -5
v -5 10 5
v 2 10 5
v 5 10 5
v 2 10 2
v 5 10 2
v 0 10 -1
v 3 10 -1
v 0 10 -4
v 3 10 -4
v -5 10 -5
v 5 10 -5

# faces
f 4/1/1 2/1/1 1/1/1
f 5/2/1 3/2/1 2/2/1
f 5/1/1 2/1/1 4/1/1
f 6/2/1 5/2/1 4/2/1
f 6/2/1 3/2/1 5/2/1
f 7/2/1 3/2/1 6/2/1
f 8/2/1 6/2/1 4/2/1
f 8/1/1 7/1/1 6/1/1
f 9/2/1 3/2/1 7/2/1
f 9/1/1 7/1/1 8/1/1
f 10/2/1 8/2/1 4/2/1
f 10/2/1 9/2/1 8/2/1
f 11/2/1 3/2/1 9/2/1
f 11/2/1 9/2/1 10/2/1
f 12/2/2 13/2/2 14/2/2
f 14/2/2 13/2/2 15/2/2
f 12/2/2 14/2/2 16/2/2
f 14/1/2 15/1/2 16/1/2
f 15/2/2 13/2/2 17/2/2
f 16/1/2 15/1/2 17/1/2
f 12/2/2 16/2/2 18/2/2
f 16/2/2 17/2/2 18/2/2
f 18/2/2 17/2/2 19/2/2
f 18/1/2 19/1/2 20/1/2
f 19/2/2 17/2/2 21/2/2
f 20/1/2 19/1/2 21/1/2
f 17/2/2 13/2/2 22/2/2
f 21/2/2 17/2/2 22/2/2
f 26/1/3 24/1/3 23/1/3
f 27/2/3 25/2/3 24/2/3
f 27/1/3 24/1/3 26/1/3
f 28/2/3 27/2/3 26/2/3
f 28/2/3 25/2/3 27/2/3
f 29/2/3 25/2/3 28/2/3
f 30/2/3 28/2/3 26/2/3
f 31/1/3 29/1/3 28/1/3
f 31/2/3 28/2/3 30/2/3
f 32/1/3 29/1/3 31/1/3
f 33/2/4 34/2/4 35/2/4
f 35/2/4 34/2/4 36/2/4
f 33/2/4 35/2/4 37/2/4
f 35/1/4 36/1/4 38/1/4
f 37/2/4 35/2/4 38/2/4
f 36/2/4 34/2/4 39/2/4
f 38/1/4 36/1/4 39/1/4
f 37/1/4 38/1/4 40/1/4
f 33/2/4 37/2/4 40/2/4
f 38/2/4 39/2/4 41/2/4
f 40/1/4 38/1/4 41/1/4
f 33/2/4 40/2/4 42/2/4
f 40/2/4 41/2/4 42/2/4
f 39/2/4 34/2/4 43/2/4
f 42/2/4 41/2/4 43/2/4
f 41/2/4 39/2/4 43/2/4
f 47/1/5 45/1/5 44/1/5
f 48/2/5 46/2/5 45/2/5
f 48/1/5 45/1/5 47/1/5
f 49/2/5 48/2/5 47/2/5
f 50/2/5 46/2/5 48/2/5
f 50/2/5 48/2/5 49/2/5
f 51/2/5 49/2/5 47/2/5
f 51/1/5 50/1/5 49/1/5
f 52/2/5 46/2/5 50/2/5
f 52/1/5 50/1/5 51/1/5
f 53/2/5 51/2/5 47/2/5
f 53/2/5 52/2/5 51/2/5
f 54/2/5 46/2/5 52/2/5
f 54/2/5 52/2/5 53/2/5
f 55/2/6 56/2/6 58/2/6
f 56/1/6 57/1/6 58/1/6
f 58/1/6 57/1/6 59/1/6
f 55/2/6 58/2/6 60/2/6
f 58/2/6 59/2/6 60/2/6
f 60/2/6 59/2/6 61/2/6
f 55/2/6 60/2/6 62/2/6
f 60/1/6 61/1/6 62/1/6
f 61/2/6 59/2/6 63/2/6
f 62/1/6 61/1/6 63/1/6
f 55/2/6 62/2/6 64/2/6
f 62/2/6 63/2/6 64/2/6
f 63/2/6 59/2/6 65/2/6
f 64/2/6 63/2/6 65/2/6
